HIERARCHY
ROOT Hips
{
  OFFSET 5.72205e-005 65.662 3.42586
  CHANNELS 6 Xposition Yposition Zposition Zrotation Xrotation Yrotation
  JOINT Chest
  {
    OFFSET 0 8.7983 -4.7612
    CHANNELS 6 Xposition Yposition Zposition Zrotation Xrotation Yrotation
    JOINT Chest2
    {
      OFFSET 0 8.0291 0.4195
      CHANNELS 6 Xposition Yposition Zposition Zrotation Xrotation Yrotation
      JOINT Chest3
      {
        OFFSET 0 9.9351 -2.2114
        CHANNELS 6 Xposition Yposition Zposition Zrotation Xrotation Yrotation
        JOINT Neck
        {
          OFFSET 0 22.3885 -0.4656
          CHANNELS 6 Xposition Yposition Zposition Zrotation Xrotation Yrotation
          JOINT Head
          {
            OFFSET -0.0001 12.643 3.4389
            CHANNELS 6 Xposition Yposition Zposition Zrotation Xrotation Yrotation
            End Site
            {
              OFFSET 0.0001 17.6655 0.5274
            }
          }
        }
        JOINT LeftCollar
        {
          OFFSET 2.2603 21.606 7.4023
          CHANNELS 6 Xposition Yposition Zposition Zrotation Xrotation Yrotation
          JOINT LeftShoulder
          {
            OFFSET 13.5163 -1.1332 -5.0146
            CHANNELS 6 Xposition Yposition Zposition Zrotation Xrotation Yrotation
            JOINT LeftElbow
            {
              OFFSET -0.0995 -28.05 -0.2431
              CHANNELS 6 Xposition Yposition Zposition Zrotation Xrotation Yrotation
              JOINT LeftWrist
              {
                OFFSET 0.0679 -23.3996 -0.1402
                CHANNELS 6 Xposition Yposition Zposition Zrotation Xrotation Yrotation
                JOINT LeftFinger1
                {
                  OFFSET 0.7932 -9.069 2.5189
                  CHANNELS 6 Xposition Yposition Zposition Zrotation Xrotation Yrotation
                  JOINT LeftFinger11
                  {
                    OFFSET -0.8272 -3.3923 0.5977
                    CHANNELS 6 Xposition Yposition Zposition Zrotation Xrotation Yrotation
                    JOINT LeftFinger12
                    {
                      OFFSET -0.5649 -2.3158 0.4082
                      CHANNELS 6 Xposition Yposition Zposition Zrotation Xrotation Yrotation
                      End Site
                      {
                        OFFSET -0.4919 -1.6479 0.2673
                      }
                    }
                  }
                }
                JOINT LeftFinger2
                {
                  OFFSET 0.9159 -9.2044 0.2193
                  CHANNELS 6 Xposition Yposition Zposition Zrotation Xrotation Yrotation
                  JOINT LeftFinger21
                  {
                    OFFSET 0.0117 -4.1944 -0.0248
                    CHANNELS 6 Xposition Yposition Zposition Zrotation Xrotation Yrotation
                    JOINT LeftFinger22
                    {
                      OFFSET 0.0071 -2.3249 -0.0142
                      CHANNELS 6 Xposition Yposition Zposition Zrotation Xrotation Yrotation
                      End Site
                      {
                        OFFSET -0.1475 -2.0882 0.0028
                      }
                    }
                  }
                }
                JOINT LeftFinger3
                {
                  OFFSET 0.6113 -8.7231 -2.0637
                  CHANNELS 6 Xposition Yposition Zposition Zrotation Xrotation Yrotation
                  JOINT LeftFinger31
                  {
                    OFFSET -0.1927 -3.8059 -0.2383
                    CHANNELS 6 Xposition Yposition Zposition Zrotation Xrotation Yrotation
                    JOINT LeftFinger32
                    {
                      OFFSET -0.1091 -2.1688 -0.1362
                      CHANNELS 6 Xposition Yposition Zposition Zrotation Xrotation Yrotation
                      End Site
                      {
                        OFFSET -0.2358 -1.9176 -0.0906
                      }
                    }
                  }
                }
                JOINT LeftFinger4
                {
                  OFFSET -0.6151 -8.0947 -3.5641
                  CHANNELS 6 Xposition Yposition Zposition Zrotation Xrotation Yrotation
                  JOINT LeftFinger41
                  {
                    OFFSET -0.4882 -2.341 -0.6462
                    CHANNELS 6 Xposition Yposition Zposition Zrotation Xrotation Yrotation
                    JOINT LeftFinger42
                    {
                      OFFSET -0.3575 -1.7167 -0.4742
                      CHANNELS 6 Xposition Yposition Zposition Zrotation Xrotation Yrotation
                      End Site
                      {
                        OFFSET -0.4187 -1.5237 -0.3496
                      }
                    }
                  }
                }
                JOINT LeftFinger0
                {
                  OFFSET -1.42 -1.8761 1.4223
                  CHANNELS 6 Xposition Yposition Zposition Zrotation Xrotation Yrotation
                  JOINT LeftFinger01
                  {
                    OFFSET -1.1471 -3.4929 2.6334
                    CHANNELS 6 Xposition Yposition Zposition Zrotation Xrotation Yrotation
                    JOINT LeftFinger02
                    {
                      OFFSET -0.823 -2.3 1.6571
                      CHANNELS 6 Xposition Yposition Zposition Zrotation Xrotation Yrotation
                      End Site
                      {
                        OFFSET -0.5822 -1.6914 1.1582
                      }
                    }
                  }
                }
              }
            }
          }
        }
        JOINT RightCollar
        {
          OFFSET -2.2603 21.606 7.4023
          CHANNELS 6 Xposition Yposition Zposition Zrotation Xrotation Yrotation
          JOINT RightShoulder
          {
            OFFSET -13.5187 -1.1334 -5.0155
            CHANNELS 6 Xposition Yposition Zposition Zrotation Xrotation Yrotation
            JOINT RightElbow
            {
              OFFSET 0.0994 -28.0499 -0.2431
              CHANNELS 6 Xposition Yposition Zposition Zrotation Xrotation Yrotation
              JOINT RightWrist
              {
                OFFSET -0.0679 -23.3996 -0.1402
                CHANNELS 6 Xposition Yposition Zposition Zrotation Xrotation Yrotation
                JOINT RightFinger1
                {
                  OFFSET -0.7932 -9.0691 2.5189
                  CHANNELS 6 Xposition Yposition Zposition Zrotation Xrotation Yrotation
                  JOINT RightFinger11
                  {
                    OFFSET 0.8272 -3.3923 0.5977
                    CHANNELS 6 Xposition Yposition Zposition Zrotation Xrotation Yrotation
                    JOINT RightFinger12
                    {
                      OFFSET 0.565 -2.3158 0.4082
                      CHANNELS 6 Xposition Yposition Zposition Zrotation Xrotation Yrotation
                      End Site
                      {
                        OFFSET 0.4919 -1.6479 0.2673
                      }
                    }
                  }
                }
                JOINT RightFinger2
                {
                  OFFSET -0.916 -9.2044 0.2193
                  CHANNELS 6 Xposition Yposition Zposition Zrotation Xrotation Yrotation
                  JOINT RightFinger21
                  {
                    OFFSET -0.0117 -4.1944 -0.0248
                    CHANNELS 6 Xposition Yposition Zposition Zrotation Xrotation Yrotation
                    JOINT RightFinger22
                    {
                      OFFSET -0.0071 -2.3249 -0.0142
                      CHANNELS 6 Xposition Yposition Zposition Zrotation Xrotation Yrotation
                      End Site
                      {
                        OFFSET 0.1475 -2.0882 0.0028
                      }
                    }
                  }
                }
                JOINT RightFinger3
                {
                  OFFSET -0.6113 -8.7231 -2.0637
                  CHANNELS 6 Xposition Yposition Zposition Zrotation Xrotation Yrotation
                  JOINT RightFinger31
                  {
                    OFFSET 0.1927 -3.8059 -0.2383
                    CHANNELS 6 Xposition Yposition Zposition Zrotation Xrotation Yrotation
                    JOINT RightFinger32
                    {
                      OFFSET 0.1091 -2.1688 -0.1362
                      CHANNELS 6 Xposition Yposition Zposition Zrotation Xrotation Yrotation
                      End Site
                      {
                        OFFSET 0.2358 -1.9176 -0.0906
                      }
                    }
                  }
                }
                JOINT RightFinger4
                {
                  OFFSET 0.6151 -8.0947 -3.564
                  CHANNELS 6 Xposition Yposition Zposition Zrotation Xrotation Yrotation
                  JOINT RightFinger41
                  {
                    OFFSET 0.4882 -2.341 -0.6462
                    CHANNELS 6 Xposition Yposition Zposition Zrotation Xrotation Yrotation
                    JOINT RightFinger42
                    {
                      OFFSET 0.3574 -1.7166 -0.4742
                      CHANNELS 6 Xposition Yposition Zposition Zrotation Xrotation Yrotation
                      End Site
                      {
                        OFFSET 0.4187 -1.5237 -0.3496
                      }
                    }
                  }
                }
                JOINT RightFinger0
                {
                  OFFSET 1.4199 -1.8761 1.4221
                  CHANNELS 6 Xposition Yposition Zposition Zrotation Xrotation Yrotation
                  JOINT RightFinger01
                  {
                    OFFSET 1.1472 -3.4929 2.6336
                    CHANNELS 6 Xposition Yposition Zposition Zrotation Xrotation Yrotation
                    JOINT RightFinger02
                    {
                      OFFSET 0.8229 -2.3 1.6571
                      CHANNELS 6 Xposition Yposition Zposition Zrotation Xrotation Yrotation
                      End Site
                      {
                        OFFSET 0.5822 -1.6914 1.1582
                      }
                    }
                  }
                }
              }
            }
          }
        }
      }
    }
  }
  JOINT RightHip
  {
    OFFSET -9.412 3.9771 -0.7758
    CHANNELS 6 Xposition Yposition Zposition Zrotation Xrotation Yrotation
    JOINT RightKnee
    {
      OFFSET -0.7531 -40.938 0
      CHANNELS 6 Xposition Yposition Zposition Zrotation Xrotation Yrotation
      JOINT RightAnkle
      {
        OFFSET 0 -40.1986 0
        CHANNELS 6 Xposition Yposition Zposition Zrotation Xrotation Yrotation
        JOINT RightToe
        {
          OFFSET 0 -4.4182 9.239
          CHANNELS 6 Xposition Yposition Zposition Zrotation Xrotation Yrotation
          End Site
          {
            OFFSET 0 0 6.1981
          }
        }
      }
    }
  }
  JOINT LeftHip
  {
    OFFSET 9.4119 3.9773 -0.7758
    CHANNELS 6 Xposition Yposition Zposition Zrotation Xrotation Yrotation
    JOINT LeftKnee
    {
      OFFSET 0.7532 -40.9383 0
      CHANNELS 6 Xposition Yposition Zposition Zrotation Xrotation Yrotation
      JOINT LeftAnkle
      {
        OFFSET 0 -40.1986 0
        CHANNELS 6 Xposition Yposition Zposition Zrotation Xrotation Yrotation
        JOINT LeftToe
        {
          OFFSET 0 -4.4182 9.239
          CHANNELS 6 Xposition Yposition Zposition Zrotation Xrotation Yrotation
          End Site
          {
            OFFSET 0 0 6.1981
          }
        }
      }
    }
  }
}
MOTION
Frames:	4
Frame Time:	0.0333333
5.72205e-005 65.662 3.42586 0 0 -0 0 8.7983 -4.7612 0 0 -0 0 8.0291 0.4195 0 0 -0 0 9.9351 -2.2114 0 0 -0 0 22.3885 -0.4656 0 0 -0 -0.0001 12.643 3.4389 0 0 -0 2.2603 21.606 7.4023 0 0 -12.5014 13.5163 -1.1332 -5.0146 88.1196 14.2451 10.6914 -0.0995 -28.05 -0.2431 -0.00160068 -0.00239207 0.000740045 0.0679 -23.3996 -0.1402 -8.4365e-005 7.00714e-005 -9.52055e-007 0.7932 -9.069 2.5189 9.93923e-017 -1.98785e-016 -1.59028e-015 -0.8272 -3.3923 0.5977 9.93923e-017 -5.96354e-016 -1.59028e-015 -0.5649 -2.3158 0.4082 -9.93923e-017 -5.96354e-016 -1.59028e-015 0.9159 -9.2044 0.2193 9.93923e-017 -1.98785e-016 -1.59028e-015 0.0117 -4.1944 -0.0248 -0.0128176 0.00232552 8.52707e-005 0.0071 -2.3249 -0.0142 9.93923e-017 5.96354e-016 -0 0.6113 -8.7231 -2.0637 9.93923e-017 -1.98785e-016 -1.59028e-015 -0.1927 -3.8059 -0.2383 -0.0160551 0.00299681 0.000857156 -0.1091 -2.1688 -0.1362 -2.48481e-016 0 3.18055e-015 -0.6151 -8.0947 -3.5641 9.93923e-017 -1.98785e-016 -1.59028e-015 -0.4882 -2.341 -0.6462 -0.0125865 0.0031206 0.00282719 -0.3575 -1.7167 -0.4742 0 1.98785e-016 -0 -1.42 -1.8761 1.4223 9.93923e-017 -1.98785e-016 -1.59028e-015 -1.1471 -3.4929 2.6334 9.93923e-017 -5.96354e-016 -1.59028e-015 -0.823 -2.3 1.6571 -9.93923e-017 -5.96354e-016 -1.59028e-015 -2.2603 21.606 7.4023 -0.865644 0.16582 7.03859 -13.5187 -1.1334 -5.0155 -88.0329 10.2057 -10.5567 0.0994 -28.0499 -0.2431 0.0015593 -0.00248883 -0.000788628 -0.0679 -23.3996 -0.1402 7.87605e-005 4.10553e-005 1.24965e-005 -0.7932 -9.0691 2.5189 -3.97569e-016 -7.95139e-016 3.18055e-015 0.8272 -3.3923 0.5977 -1.98785e-016 -3.97569e-016 3.18055e-015 0.565 -2.3158 0.4082 -1.98785e-016 0 3.18055e-015 -0.916 -9.2044 0.2193 -3.97569e-016 -7.95139e-016 3.18055e-015 -0.0117 -4.1944 -0.0248 0.0129473 0.00231697 -8.70038e-005 -0.0071 -2.3249 -0.0142 9.93923e-017 -7.95139e-016 1.59028e-015 -0.6113 -8.7231 -2.0637 -3.97569e-016 -7.95139e-016 3.18055e-015 0.1927 -3.8059 -0.2383 0.0163314 0.00303369 -0.000872333 0.1091 -2.1688 -0.1362 3.97569e-016 7.95139e-016 -3.18055e-015 0.6151 -8.0947 -3.564 -3.97569e-016 -7.95139e-016 3.18055e-015 0.4882 -2.341 -0.6462 0.0145763 0.00367772 -0.00326275 0.3574 -1.7166 -0.4742 9.93923e-017 -3.97569e-016 -0 1.4199 -1.8761 1.4221 -3.97569e-016 -7.95139e-016 3.18055e-015 1.1472 -3.4929 2.6336 -1.98785e-016 -3.97569e-016 3.18055e-015 0.8229 -2.3 1.6571 -1.98785e-016 0 3.18055e-015 -9.412 3.9771 -0.7758 3.42482 1.32465 -0.0626183 -0.7531 -40.938 0 0.000117508 0.717283 0.000978199 0 -40.1986 0 -3.4257 -2.04197 -0.0604716 8.88178e-016 -4.4182 9.239 6.47761e-025 0 -0 9.4119 3.9773 -0.7758 -3.42483 1.34017 0.0627307 0.7532 -40.9383 -2.22045e-016 -0.000193936 0.682302 -0.0013703 -8.88179e-016 -40.1986 0 3.42574 -2.02253 0.0595886 -8.88178e-016 -4.4182 9.239 -8.45714e-024 0 -7.40531e-025 
23.6065 4.17959 -7.532 0 66.6644 -0 0 8.7983 -4.7612 -0 -1.18612 -0 0 8.0291 0.4195 -0 -2.37225 -0 0 9.9351 -2.2114 -0 -2.37225 -0 0 22.3885 -0.4656 -1.02031 -4.75714 39.2052 -0.0001 12.643 3.4389 0.231717 3.05226 12.5762 2.2603 21.606 7.4023 -3.68827e-007 -0.00013803 -12.5014 13.5163 -1.1332 -5.0146 113.415 -8.5877 48.5324 -0.0995 -28.05 -0.2431 -71.5517 -77.9693 -78.2518 0.0679 -23.3996 -0.1402 11.5052 -1.62191 -14.255 0.7932 -9.069 2.5189 5.87272e-007 5.64495e-006 8.78641e-007 -0.8272 -3.3923 0.5977 2.02796e-006 5.87168e-006 -3.78646e-008 -0.5649 -2.3158 0.4082 -5.57533e-007 3.58408e-006 5.45591e-006 0.9159 -9.2044 0.2193 5.87272e-007 5.64495e-006 8.78641e-007 0.0117 -4.1944 -0.0248 -0.0128297 0.00233627 8.18435e-005 0.0071 -2.3249 -0.0142 8.83463e-007 3.58292e-006 4.53943e-006 0.6113 -8.7231 -2.0637 5.87272e-007 5.64495e-006 8.78641e-007 -0.1927 -3.8059 -0.2383 -0.0160332 0.00300275 0.000861771 -0.1091 -2.1688 -0.1362 -2.85053e-006 2.1693e-006 8.16733e-006 -0.6151 -8.0947 -3.5641 5.87272e-007 5.64495e-006 8.78641e-007 -0.4882 -2.341 -0.6462 -0.0125859 0.00312566 0.00282589 -0.3575 -1.7167 -0.4742 1.44073e-006 1.64066e-006 -9.16427e-007 -1.42 -1.8761 1.4223 5.87272e-007 5.64495e-006 8.78641e-007 -1.1471 -3.4929 2.6334 2.02796e-006 5.87168e-006 -3.78646e-008 -0.823 -2.3 1.6571 -5.57533e-007 3.58408e-006 5.45591e-006 -2.2603 21.606 7.4023 -0.865644 0.165685 7.03859 -13.5187 -1.1334 -5.0155 -136.406 -13.5366 -48.2832 0.0994 -28.0499 -0.2431 70.9775 -79.1767 77.0457 -0.0679 -23.3996 -0.1402 -12.5294 -1.97506 13.8959 -0.7932 -9.0691 2.5189 3.18055e-015 -6.36111e-015 -2.38542e-015 0.8272 -3.3923 0.5977 2.38542e-015 -1.90833e-014 -2.38542e-015 0.565 -2.3158 0.4082 2.36029e-006 -1.56762e-006 2.08913e-006 -0.916 -9.2044 0.2193 3.18055e-015 -6.36111e-015 -2.38542e-015 -0.0117 -4.1944 -0.0248 0.0129602 0.00231476 -9.00089e-005 -0.0071 -2.3249 -0.0142 -8.06294e-006 5.1806e-007 -2.18658e-006 -0.6113 -8.7231 -2.0637 3.18055e-015 -6.36111e-015 -2.38542e-015 0.1927 -3.8059 -0.2383 0.0163328 0.00303038 -0.000868972 0.1091 -2.1688 -0.1362 -8.59457e-006 4.07114e-006 -1.53285e-006 0.6151 -8.0947 -3.564 3.18055e-015 -6.36111e-015 -2.38542e-015 0.4882 -2.341 -0.6462 0.014565 0.00367007 -0.00326649 0.3574 -1.7166 -0.4742 -5.31631e-007 -1.64367e-006 6.53826e-007 1.4199 -1.8761 1.4221 3.18055e-015 -6.36111e-015 -2.38542e-015 1.1472 -3.4929 2.6336 2.38542e-015 -1.90833e-014 -2.38542e-015 0.8229 -2.3 1.6571 2.36029e-006 -1.56762e-006 2.08913e-006 -9.412 3.9771 -0.7758 -1.10374 -2.09967 -0.10871 -0.7531 -40.938 -2.66454e-015 -0.000270215 13.0985 -1.01436 0 -40.1986 -1.77636e-015 -3.6891 38.5826 0.615496 0 -4.4182 9.239 6.72292e-007 -4.53831e-008 1.52043e-006 9.4119 3.9773 -0.7758 1.10068 -2.18433 0.174614 0.7532 -40.9383 -6.21725e-015 8.64121e-005 15.6337 1.05494 7.10543e-015 -40.1986 -1.77636e-015 3.64933 38.3519 -0.566233 3.55271e-015 -4.4182 9.239 3.97569e-016 6.36111e-015 1.59028e-015 
34.2293 -20.0247 -9.99977 -180 83.3366 -180 0 8.7983 -4.7612 -0 -1.7199 -0 0 8.0291 0.4195 -0 -3.43979 -0 0 9.9351 -2.2114 -0 -3.43978 -0 0 22.3885 -0.4656 0.348237 -4.87718 56.9316 -0.0001 12.643 3.4389 -0.0935557 4.16152 18.2621 2.2603 21.606 7.4023 -1.08951e-006 -0.000111937 -12.5014 13.5163 -1.1332 -5.0146 123.667 -19.6503 65.413 -0.0995 -28.05 -0.2431 -162.475 -52.9688 -172.63 0.0679 -23.3996 -0.1402 16.7132 -2.35574 -20.539 0.7932 -9.069 2.5189 -3.62782e-015 1.59028e-015 1.39149e-015 -0.8272 -3.3923 0.5977 -4.47266e-016 1.59028e-015 9.93923e-016 -0.5649 -2.3158 0.4082 -1.83876e-015 0 -3.97569e-016 0.9159 -9.2044 0.2193 -3.62782e-015 1.59028e-015 1.39149e-015 0.0117 -4.1944 -0.0248 -0.0128268 0.00232913 8.55253e-005 0.0071 -2.3249 -0.0142 1.33378e-005 9.86121e-007 1.31537e-006 0.6113 -8.7231 -2.0637 -3.62782e-015 1.59028e-015 1.39149e-015 -0.1927 -3.8059 -0.2383 -0.0160253 0.00299203 0.000856039 -0.1091 -2.1688 -0.1362 2.98177e-016 1.59028e-015 1.98785e-016 -0.6151 -8.0947 -3.5641 -3.62782e-015 1.59028e-015 1.39149e-015 -0.4882 -2.341 -0.6462 -0.0125697 0.00311484 0.00282443 -0.3575 -1.7167 -0.4742 -8.44835e-016 2.38542e-014 -9.93923e-016 -1.42 -1.8761 1.4223 -3.62782e-015 1.59028e-015 1.39149e-015 -1.1471 -3.4929 2.6334 -4.47266e-016 1.59028e-015 9.93923e-016 -0.823 -2.3 1.6571 -1.83876e-015 0 -3.97569e-016 -2.2603 21.606 7.4023 -0.865643 0.16571 7.03859 -13.5187 -1.1334 -5.0155 -157.2 -25.8381 -65.4278 0.0994 -28.0499 -0.2431 165.495 -53.1531 174.622 -0.0679 -23.3996 -0.1402 -18.1797 -2.85821 20.0014 -0.7932 -9.0691 2.5189 1.59028e-015 -2.54444e-014 -0 0.8272 -3.3923 0.5977 2.78299e-015 -2.54444e-014 -0 0.565 -2.3158 0.4082 -3.97569e-016 -1.59028e-014 -1.59028e-015 -0.916 -9.2044 0.2193 1.59028e-015 -2.54444e-014 -0 -0.0117 -4.1944 -0.0248 0.0129732 0.00232322 -9.40008e-005 -0.0071 -2.3249 -0.0142 1.98785e-015 3.18055e-015 1.59028e-015 -0.6113 -8.7231 -2.0637 1.59028e-015 -2.54444e-014 -0 0.1927 -3.8059 -0.2383 0.0163352 0.0030344 -0.000879415 0.1091 -2.1688 -0.1362 3.97569e-016 9.54166e-015 -1.59028e-015 0.6151 -8.0947 -3.564 1.59028e-015 -2.54444e-014 -0 0.4882 -2.341 -0.6462 0.0146105 0.00368246 -0.00326915 0.3574 -1.7166 -0.4742 -1.59028e-015 3.18055e-015 6.36111e-015 1.4199 -1.8761 1.4221 1.59028e-015 -2.54444e-014 -0 1.1472 -3.4929 2.6336 2.78299e-015 -2.54444e-014 -0 0.8229 -2.3 1.6571 -3.97569e-016 -1.59028e-014 -1.59028e-015 -9.412 3.9771 -0.7758 -3.10292 -6.28707 -0.0908369 -0.7531 -40.938 0 -0.000137079 23.0032 -1.54366 -3.55271e-015 -40.1986 -7.10543e-015 -4.19169 55.1759 1.1619 -7.10543e-015 -4.4182 9.239 2.12439e-008 -8.38194e-007 -4.37075e-007 9.4119 3.9773 -0.7758 3.10246 -6.14626 0.188764 0.7532 -40.9383 0 0.000133682 26.0812 1.59383 -7.10543e-015 -40.1986 7.10543e-015 4.11774 55.1762 -1.08978 0 -4.4182 9.239 3.97569e-016 0 -0 
31.8687 -14.7477 -9.67119 0 89.9969 -0 0 8.7983 -4.7612 -0 -1.60128 -0 0 8.0291 0.4195 -0 -3.20257 -0 0 9.9351 -2.2114 -0 -3.20259 -0 0 22.3885 -0.4656 -0.00183026 -5.00244 52.9985 -0.0001 12.643 3.4389 -0.00145029 3.59883 16.9969 2.2603 21.606 7.4023 -2.50624e-006 -0.000102321 -12.5014 13.5163 -1.1332 -5.0146 121.452 -17.1641 61.6761 -0.0995001 -28.05 -0.2431 -156.657 -61.0124 -166.094 0.0679 -23.3996 -0.1402 15.5543 -2.19288 -19.1494 0.793201 -9.069 2.5189 -1.98785e-015 6.36111e-015 -5.96354e-016 -0.827201 -3.3923 0.5977 -1.39149e-015 0 -4.96962e-016 -0.5649 -2.3158 0.4082 -6.95746e-016 3.18055e-015 -2.98177e-016 0.915901 -9.2044 0.2193 -1.98785e-015 6.36111e-015 -5.96354e-016 0.0117 -4.1944 -0.0248 -0.0128198 0.00231827 8.5002e-005 0.0071 -2.3249 -0.0142 2.48481e-016 3.18055e-015 9.93923e-017 0.6113 -8.7231 -2.0637 -1.98785e-015 6.36111e-015 -5.96354e-016 -0.1927 -3.8059 -0.2383 -0.0160424 0.00298839 0.000854129 -0.1091 -2.1688 -0.1362 5.46658e-016 3.18055e-015 3.97569e-016 -0.6151 -8.0947 -3.5641 -1.98785e-015 6.36111e-015 -5.96354e-016 -0.4882 -2.341 -0.6462 -0.0125809 0.00311475 0.00282818 -0.3575 -1.7167 -0.4742 -8.94531e-016 -3.18055e-015 -0 -1.42 -1.8761 1.4223 -1.98785e-015 6.36111e-015 -5.96354e-016 -1.1471 -3.4929 2.6334 -1.39149e-015 0 -4.96962e-016 -0.823001 -2.3 1.6571 -6.95746e-016 3.18055e-015 -2.98177e-016 -2.2603 21.606 7.4023 -0.865643 0.165716 7.03859 -13.5187 -1.1334 -5.0155 -152.607 -23.05 -61.5935 0.0994001 -28.0499 -0.2431 160.13 -61.3309 168.639 -0.0679 -23.3996 -0.1402 -16.9236 -2.66297 18.6521 -0.7932 -9.0691 2.5189 -7.67367e-008 -8.13618e-007 -4.19906e-007 0.8272 -3.3923 0.5977 -1.53473e-007 -2.7601e-008 -8.39811e-007 0.565 -2.3158 0.4082 -4.26894e-007 -3.07277e-007 -2.92034e-006 -0.916001 -9.2044 0.2193 -7.67367e-008 -8.13618e-007 -4.19906e-007 -0.0117 -4.1944 -0.0248 0.0129057 0.00230919 -8.61421e-005 -0.0071 -2.3249 -0.0142 -2.30163e-007 -1.65402e-006 -1.25973e-006 -0.6113 -8.7231 -2.0637 -7.67367e-008 -8.13618e-007 -4.19906e-007 0.1927 -3.8059 -0.2383 0.0163325 0.00303667 -0.000872941 0.1091 -2.1688 -0.1362 -3.06863e-007 8.38281e-007 -1.67964e-006 0.6151 -8.0947 -3.564 -7.67367e-008 -8.13618e-007 -4.19906e-007 0.4882 -2.341 -0.6462 0.0145784 0.00368013 -0.00326266 0.3574 -1.7166 -0.4742 -1.53422e-007 -8.13654e-007 -8.39821e-007 1.4199 -1.8761 1.4221 -7.67367e-008 -8.13618e-007 -4.19906e-007 1.1472 -3.4929 2.6336 -1.53473e-007 -2.7601e-008 -8.39811e-007 0.8229 -2.3 1.6571 -4.26894e-007 -3.07277e-007 -2.92034e-006 -9.412 3.9771 -0.7758 -2.66069 -5.27284 -0.0967558 -0.7531 -40.938 0 -0.000108791 20.7149 -1.42289 3.55271e-015 -40.1986 3.55271e-015 -4.03642 51.4924 0.998687 0 -4.4182 9.239 -2.64834e-031 9.54166e-015 1.59028e-015 9.4119 3.9773 -0.7758 2.65923 -5.21835 0.187176 0.7532 -40.9383 0 0.000101365 23.7496 1.47159 0 -40.1986 0 3.9675 51.4003 -0.929006 0 -4.4182 9.239 -3.97569e-016 6.36111e-015 -1.59028e-015 
